<?xml version="1.0" encoding="UTF-8"?>
<svg width="10px" height="10px" viewBox="0 0 24 24" version="1.1" xmlns="http://www.w3.org/2000/svg" xmlns:xlink="http://www.w3.org/1999/xlink">
    <!-- Generator: Sketch 41 (35326) - http://www.bohemiancoding.com/sketch -->
    <title>icon-facebook</title>
    <desc>Created with Sketch.</desc>
    <defs></defs>
    <g id="Symbols" stroke="none" stroke-width="1" fill="none" fill-rule="evenodd">
        <g id="icon-facebook" fill="#666">
            <path d="M24,4 C24,1.89833333 22.103,0 20,0 L4,0 C1.897,0 0,1.89833333 0,4 L0,20 C0,22.1016667 1.897,24 4,24 L12,24 L12,14.9336667 L9.06633333,14.9336667 L9.06633333,10.9336667 L12,10.9336667 L12,9.375 C12,6.68733333 14.0183333,4.267 16.5,4.267 L19.733,4.267 L19.733,8.267 L16.5,8.267 C16.146,8.267 15.733,8.69666667 15.733,9.34 L15.733,10.9336667 L19.733,10.9336667 L19.733,14.9336667 L15.733,14.9336667 L15.733,24 L20,24 C22.103,24 24,22.1016667 24,20 L24,4 Z" id="Fill-1"></path>
        </g>
    </g>
</svg>