<svg version="1.1" baseProfile="full" xmlns="http://www.w3.org/2000/svg" xmlns:xlink="http://www.w3.org/1999/xlink" xmlns:ev="http://www.w3.org/2001/xml-events" xml:space="preserve" x="0px" y="0px" width="14px" height="16px"  viewBox="0 0 14 16" preserveAspectRatio="none" shape-rendering="geometricPrecision">"<path fill="#e24935" d="M12.250,2.500 L9.500,2.500 L9.500,1.000 C9.500,0.447 9.052,-0.000 8.500,-0.000 L4.500,-0.000 C3.948,-0.000 3.500,0.447 3.500,1.000 L3.500,2.500 L0.750,2.500 C0.336,2.500 -0.000,2.835 -0.000,3.250 C-0.000,3.664 0.336,4.000 0.750,4.000 L1.000,4.000 L1.000,15.000 C1.000,15.552 1.448,16.000 2.000,16.000 L11.000,16.000 C11.552,16.000 12.000,15.552 12.000,15.000 L12.000,4.000 L12.250,4.000 C12.664,4.000 13.000,3.664 13.000,3.250 C13.000,2.835 12.664,2.500 12.250,2.500 ZM5.000,1.500 L8.000,1.500 L8.000,2.500 L5.000,2.500 L5.000,1.500 ZM10.500,14.500 L2.500,14.500 L2.500,4.000 L10.500,4.000 L10.500,14.500 Z" /></svg>