<svg version="1.1" baseProfile="full" xmlns="http://www.w3.org/2000/svg" xmlns:xlink="http://www.w3.org/1999/xlink" xmlns:ev="http://www.w3.org/2001/xml-events" xml:space="preserve" x="0px" y="0px" width="16px" height="16px"  viewBox="0 0 16 16" preserveAspectRatio="none" shape-rendering="geometricPrecision">"<path fill="rgba(0, 0, 0, 0.9)" d="M10.000,-0.001 C6.686,-0.001 4.000,2.686 4.000,6.000 C4.000,7.386 4.474,8.658 5.264,9.674 L0.220,14.719 C0.073,14.865 -0.000,15.057 -0.000,15.249 C-0.000,15.442 0.073,15.633 0.220,15.780 C0.366,15.926 0.558,15.999 0.750,15.999 C0.942,15.999 1.134,15.926 1.280,15.780 L6.325,10.735 C7.341,11.525 8.613,11.999 10.000,11.999 C13.313,11.999 16.000,9.313 16.000,6.000 C16.000,2.686 13.313,-0.001 10.000,-0.001 ZM10.000,10.499 C7.518,10.499 5.500,8.481 5.500,6.000 C5.500,3.518 7.518,1.499 10.000,1.499 C12.481,1.499 14.500,3.518 14.500,6.000 C14.500,8.481 12.481,10.499 10.000,10.499 Z" /></svg>