<svg version="1.1" baseProfile="full" xmlns="http://www.w3.org/2000/svg" xmlns:xlink="http://www.w3.org/1999/xlink" xmlns:ev="http://www.w3.org/2001/xml-events" xml:space="preserve" x="0px" y="0px" width="15px" height="16px"  viewBox="0 0 15 16" preserveAspectRatio="none" shape-rendering="geometricPrecision">"<path fill="rgba(0, 0, 0, 0.9)" d="M11.094,8.799 C11.660,7.879 12.000,6.739 12.000,5.499 C12.000,2.462 9.985,-0.001 7.500,-0.001 C5.014,-0.001 3.000,2.462 3.000,5.499 C3.000,6.739 3.340,7.879 3.905,8.799 C1.580,9.902 -0.000,12.039 -0.000,14.500 L-0.000,14.999 C-0.000,15.552 0.448,15.999 1.000,15.999 L14.000,15.999 C14.552,15.999 15.000,15.552 15.000,14.999 L15.000,14.500 C15.000,12.039 13.420,9.902 11.094,8.799 ZM7.500,1.500 C9.126,1.500 10.500,3.331 10.500,5.499 C10.500,7.668 9.126,9.499 7.500,9.499 C5.874,9.499 4.500,7.668 4.500,5.499 C4.500,3.331 5.874,1.500 7.500,1.500 ZM1.500,14.500 C1.500,12.515 2.895,10.800 4.910,9.993 C5.643,10.625 6.535,10.999 7.500,10.999 C8.465,10.999 9.357,10.625 10.090,9.993 C12.105,10.800 13.500,12.515 13.500,14.500 L1.500,14.500 Z" /></svg>